<?xml version="1.0" standalone="no"?>
<!DOCTYPE svg PUBLIC "-//W3C//DTD SVG 20010904//EN"
 "http://www.w3.org/TR/2001/REC-SVG-20010904/DTD/svg10.dtd">
<svg version="1.0" xmlns="http://www.w3.org/2000/svg"
 width="512.000000pt" height="512.000000pt" viewBox="0 0 512.000000 512.000000"
 preserveAspectRatio="xMidYMid meet">

<g transform="translate(0.000000,512.000000) scale(0.100000,-0.100000)"
fill="#512BD4" stroke="none">
<path d="M0 2560 l0 -2560 2560 0 2560 0 0 2560 0 2560 -2560 0 -2560 0 0
-2560z m4262 1763 c9 -10 39 -65 68 -123 29 -58 53 -106 54 -107 1 -1 57 -9
124 -19 139 -20 172 -36 172 -84 0 -24 -18 -47 -96 -123 l-96 -93 22 -132 c20
-123 21 -134 6 -157 -30 -46 -55 -42 -183 26 l-117 63 -117 -62 c-65 -34 -124
-62 -132 -62 -9 0 -28 11 -43 23 l-28 24 23 139 23 139 -96 91 c-80 77 -96 97
-96 122 0 32 38 72 69 72 9 0 64 7 122 16 l106 16 54 111 c30 60 60 116 67
123 19 20 76 17 94 -3z m-1509 -77 c253 -75 445 -240 556 -478 63 -134 75
-192 75 -363 1 -171 -16 -250 -80 -378 -76 -151 -207 -296 -333 -367 -104 -59
-103 -53 -12 -89 96 -39 60 -56 319 141 101 77 198 146 217 154 45 18 126 18
173 -2 111 -46 167 -184 119 -295 -31 -74 -178 -201 -415 -360 -188 -126 -229
-149 -260 -149 -20 0 -127 14 -237 30 l-200 29 -26 -27 c-14 -15 -168 -182
-342 -372 -397 -434 -875 -912 -931 -930 -59 -19 -147 -9 -194 22 -49 33 -92
114 -92 172 1 79 30 120 246 336 l204 206 -53 52 c-29 29 -56 52 -60 52 -20 0
-223 -163 -312 -251 -107 -105 -148 -129 -220 -129 -145 0 -245 139 -197 274
15 42 72 103 462 492 l445 444 -84 0 -84 0 -216 -112 c-119 -61 -233 -120
-254 -131 -90 -46 -197 -27 -265 47 -22 23 -45 60 -52 80 -19 58 -8 137 26
193 29 47 33 50 374 220 l345 171 188 1 187 1 -39 78 c-130 257 -130 535 -1
792 112 223 319 389 560 450 108 27 122 29 255 25 92 -3 140 -9 208 -29z
m-1373 -506 l0 -70 65 0 65 0 0 -65 0 -65 -65 0 -65 0 0 -70 0 -71 -67 3 -68
3 -3 68 -3 67 -64 0 -65 0 0 65 0 65 65 0 65 0 0 -65 0 -65 70 0 70 0 0 65 0
64 -67 3 -68 3 -3 54 c-5 79 -2 81 73 81 l65 0 0 -70z m2560 -1820 l0 -70 70
0 70 0 0 -65 0 -65 -70 0 -70 0 0 -70 0 -70 -65 0 -65 0 0 70 0 70 -70 0 -70
0 0 65 0 65 70 0 70 0 0 70 0 70 65 0 65 0 0 -70z m-1280 -470 l0 -70 65 0 65
0 0 -65 0 -65 -65 0 -65 0 0 -70 0 -70 -65 0 -65 0 0 70 0 70 -70 0 -70 0 0
65 0 65 70 0 70 0 0 70 0 70 65 0 65 0 0 -70z m810 -270 l0 -70 65 0 65 0 0
-65 0 -65 -65 0 -65 0 0 -70 0 -71 -67 3 -68 3 0 65 0 65 68 3 67 3 0 64 0 65
-70 0 -70 0 0 -65 0 -65 -65 0 -65 0 0 65 0 65 65 0 65 0 0 63 c0 35 3 67 7
70 3 4 35 7 70 7 l63 0 0 -70z"/>
<path d="M4175 4050 c-19 -38 -43 -73 -52 -78 -10 -5 -45 -13 -78 -17 -33 -4
-64 -9 -68 -12 -5 -3 17 -31 47 -63 61 -63 63 -71 45 -164 -6 -32 -8 -60 -6
-63 3 -2 38 12 78 33 l73 36 74 -36 c41 -20 77 -35 79 -32 3 2 0 28 -6 56 -20
92 -16 106 45 170 30 32 52 60 47 63 -4 2 -35 8 -68 12 -33 4 -68 11 -78 16
-9 6 -33 41 -52 79 -19 39 -37 70 -40 70 -3 0 -21 -31 -40 -70z"/>
<path d="M2428 4140 c-188 -22 -373 -122 -489 -264 -65 -79 -133 -220 -155
-320 -20 -95 -15 -271 11 -356 61 -199 204 -368 389 -459 111 -55 197 -75 331
-75 133 0 232 25 349 87 74 39 214 156 236 196 7 15 -26 33 -231 126 l-240
108 -42 -41 c-79 -78 -179 -94 -275 -46 -205 102 -153 403 75 440 l40 6 88
294 c49 161 87 295 84 297 -11 10 -110 14 -171 7z"/>
<path d="M2737 4102 c-2 -4 -44 -139 -92 -301 -56 -188 -85 -298 -79 -306 5
-7 24 -31 42 -55 18 -24 35 -60 38 -81 6 -37 8 -38 128 -93 66 -30 185 -84
264 -120 l142 -65 15 29 c61 117 77 338 37 483 -53 186 -174 347 -335 445 -63
38 -154 75 -160 64z m167 -201 c117 -62 207 -187 222 -308 l7 -53 -72 0 -71 0
0 33 c0 79 -76 179 -167 219 -24 10 -43 24 -43 31 0 11 16 76 25 105 6 16 32
9 99 -27z m226 -566 l0 -65 -70 0 -70 0 0 65 0 65 70 0 70 0 0 -65z"/>
<path d="M2349 3371 c-22 -22 -29 -39 -29 -68 1 -97 112 -136 175 -61 23 27
26 39 22 72 -12 84 -108 117 -168 57z"/>
<path d="M1490 2695 l0 -106 138 1 c75 1 145 1 154 1 27 -1 48 -30 48 -64 0
-28 -22 -54 -185 -217 l-185 -185 267 -267 c148 -148 271 -268 274 -268 4 0
141 146 304 325 163 179 305 330 315 335 12 6 79 1 209 -17 105 -14 194 -23
197 -20 4 4 -2 50 -12 103 l-19 96 -159 63 -159 63 -121 -5 c-237 -11 -441 59
-621 212 l-50 42 -198 8 -197 7 0 -107z m729 -319 c135 -134 154 -158 154
-186 0 -27 -19 -51 -151 -182 -131 -132 -155 -151 -182 -151 -28 0 -52 19
-186 154 -113 114 -154 162 -154 179 0 18 42 66 158 182 116 116 164 158 182
158 17 0 65 -41 179 -154z"/>
<path d="M1950 2275 l-85 -85 88 -88 87 -87 87 87 88 88 -85 85 c-46 47 -87
85 -90 85 -3 0 -44 -38 -90 -85z"/>
<path d="M1217 2689 c-71 -36 -117 -65 -114 -72 2 -7 14 -42 26 -79 13 -38 26
-68 29 -68 4 1 48 22 97 48 l90 47 3 93 c1 50 -1 92 -5 91 -4 0 -61 -27 -126
-60z"/>
<path d="M3503 2714 c-91 -69 -89 -57 -26 -140 30 -41 59 -74 63 -74 4 0 35
29 68 64 74 76 80 109 33 157 -41 40 -77 38 -138 -7z"/>
<path d="M884 2525 c-73 -34 -93 -48 -103 -73 -15 -35 -8 -67 22 -99 30 -33
75 -29 158 12 60 31 69 39 64 56 -4 11 -17 49 -28 83 l-22 63 -91 -42z"/>
<path d="M3230 2508 c-36 -27 -73 -56 -83 -63 -18 -12 -18 -16 -1 -101 9 -49
20 -92 23 -96 4 -4 64 31 134 77 l127 85 -56 75 c-31 41 -62 75 -68 74 -6 0
-40 -23 -76 -51z"/>
<path d="M1212 1877 l-152 -152 53 -53 c29 -28 56 -52 60 -52 4 0 58 38 121
85 82 62 121 85 142 85 25 0 51 -21 152 -123 67 -68 122 -129 122 -136 0 -30
-37 -75 -135 -166 -58 -54 -105 -103 -105 -109 0 -11 53 -66 91 -94 12 -9 43
16 182 156 l167 167 -273 273 -272 272 -153 -153z"/>
<path d="M892 1557 c-81 -81 -90 -110 -47 -152 41 -42 69 -34 152 48 l74 72
-53 52 -54 53 -72 -73z"/>
<path d="M1297 1091 c-57 -59 -67 -74 -67 -105 0 -43 31 -76 73 -76 23 0 45
16 101 70 l71 69 -55 56 -56 56 -67 -70z"/>
<path d="M3810 1785 l0 -65 65 0 65 0 0 65 0 65 -65 0 -65 0 0 -65z"/>
<path d="M2530 1315 l0 -65 65 0 65 0 0 65 0 65 -65 0 -65 0 0 -65z"/>
</g>
</svg>
